<?xml version="1.0" encoding="UTF-8"?>
<svg id="_Слой_2" data-name="Слой 2" xmlns="http://www.w3.org/2000/svg" viewBox="0 0 5437.48 3061.42">
  <defs>
    <style>
      .cls-1 {
        fill: #fff;
      }
    </style>
  </defs>
  <g id="_Слой_2-2" data-name="Слой 2">
    <rect class="cls-1" y="0" width="5437.48" height="3061.42"/>
    <g>
      <path d="M1380.33,1067.52h-418.12c-13.1,0-19.63,6.3-19.63,18.89,0,5.69,1.72,10.25,5.18,13.7,3.45,3.47,8.01,5.18,13.7,5.18h302.57c63.45,0,119.99,3.21,169.62,9.63,49.63,6.43,92.96,16.35,129.99,29.81,37.03,13.47,65.42,31.36,85.18,53.71,19.75,22.34,29.63,48.69,29.63,79.06,0,26.92-11.66,51.66-35,74.26-23.32,22.58-54.75,41.17-94.24,55.73-39.51,14.58-84.87,26.92-136.11,37.03-51.23,10.12-105.12,16.16-161.65,18.15-56.54,1.97-113.09,1.72-169.62-.74-56.54-2.47-110.36-9.02-161.47-19.63-51.11-10.61-96.42-23.45-135.92-38.52-39.51-15.05-70.87-34.19-94.07-57.4-23.21-23.2-34.68-48.63-34.44-76.29h242.57c0,8.15,5.3,14.32,15.92,18.52,10.61,4.21,21.72,6.3,33.33,6.3h442.93c5.67,0,10.31-1.72,13.9-5.18,3.57-3.45,5.36-8.01,5.36-13.7,0-12.59-6.67-18.89-20-18.89h-407.75c-16.06-.49-32.28-1.54-48.69-3.14-16.43-1.61-35.06-4.21-55.94-7.79-20.86-3.57-40.49-7.9-58.87-12.95-18.4-5.07-36.62-11.73-54.63-20-18.03-8.28-33.51-17.54-46.49-27.79-12.95-10.24-23.45-22.77-31.46-37.58-8.03-14.81-12.04-30.98-12.04-48.51,0-29.12,11.42-55.79,34.26-79.99,22.83-24.19,53.51-44.13,92.02-59.82,38.52-15.67,82.7-28.93,132.58-39.8,49.86-10.86,102.39-17.47,157.59-19.81,55.17-2.36,110.36-2.41,165.53-.19,55.2,2.22,107.78,8.7,157.77,19.45,50.01,10.73,94.2,23.7,132.58,38.87,38.4,15.2,68.94,34.58,91.67,58.16,22.71,23.57,34.07,49.31,34.07,77.21h-242.57c0-8.15-5.38-14.5-16.1-19.08-10.75-4.56-21.81-6.84-33.15-6.84Z"/>
      <path d="M2073.61,1446.75v-379.23h-386.64v-151.84h1001.03v151.84h-386.64v379.23h-227.76Z"/>
      <path d="M1158.61,1574.75l145.08,207.64,145.42-207.64,213.23-.7,289.44,501.27h-247.85l-171.62-297.83-228.61,325.79-228.28-325.79-171.62,297.83h-247.85l289.1-501.27,213.57.7Z"/>
      <path d="M2201.7,1896.34v35.66h630.27v143.32h-844.9v-501.27h808.88v143.32h-594.25v35.66h494.28v143.32h-494.28Z"/>
      <path d="M3972.57,2075.32v-501.27h214.63v357.95h594.28v143.32h-808.91Z"/>
      <path d="M4527.12,1257.14h10c30.37,0,57.89-4.87,82.59-14.64,24.68-9.75,44.63-22.64,59.8-38.69,15.2-16.04,26.86-34.31,35-54.81,8.15-20.49,12.22-41.34,12.22-62.59s-4.07-42.09-12.22-62.59c-8.15-20.49-19.81-38.75-35-54.81-15.17-16.04-35.12-28.95-59.8-38.69-24.69-9.76-52.22-14.64-82.59-14.64h-791.79v531.07h227.39v-189.61h242.2l254.05,189.61h312.57l-254.42-189.61ZM4269.75,1136.28c-140.09,29.65-266.65,27.78-282.67-4.18-16.02-31.97,84.56-81.92,224.65-111.57,140.09-29.65,266.65-27.78,282.67,4.19,16.02,31.96-84.56,81.92-224.65,111.57Z"/>
      <path d="M3409.43,915.68h-529.59l-305.53,531.07h261.83l109.99-189.61h398.12l109.25,189.61h261.46l-305.53-531.07ZM3156.25,1113.26c-67.73,18.05-128.57,18.59-135.88,1.19-7.31-17.39,41.67-46.13,109.41-64.19,67.73-18.06,128.57-18.59,135.88-1.19,7.31,17.4-41.68,46.13-109.41,64.19Z"/>
      <path d="M3641.19,1574.05h-499.87l-288.37,501.27h247.13l103.83-178.98h375.76l103.13,178.98h246.79l-288.4-501.27ZM3405.22,1760.54c-63.93,17.04-121.35,17.54-128.25,1.13-6.9-16.42,39.34-43.54,103.27-60.59,63.93-17.04,121.35-17.55,128.25-1.13,6.9,16.42-39.34,43.54-103.27,60.59Z"/>
    </g>
  </g>
</svg>